<?xml version="1.0" encoding="UTF-8"?><svg xmlns="http://www.w3.org/2000/svg" xmlns:xlink="http://www.w3.org/1999/xlink" height="448.9" preserveAspectRatio="xMidYMid meet" version="1.0" viewBox="-2.5 -9.6 505.8 448.9" width="505.8" zoomAndPan="magnify"><g><g id="change1_1"><path d="M31.635067,176.3005524L3.6264889,15.3990421 C2.1460805,6.8945069,7.8402605,0.0002142,16.3447952,0.0002089L350.731781,0 c8.5045471-0.0000053,16.598938,6.8942785,18.0793457,15.3988142l35.0342712,201.2621765 c1.4804077,8.5045319-4.2137756,15.3988342-12.7183228,15.3988342l-314.9849548,0.0001984l-34.8008423,0.0000153 l-32.5125732,0.0000305c-6.6527948,0-11.3395767-8.0911255-7.3692131-12.7220001l27.4200706-31.9817047 C31.3662148,184.4560394,32.3603706,180.4672241,31.635067,176.3005524z" fill="#FFCD34"/></g><g id="change2_14"><path d="M399.7073364,192.8895111H262.4959106c-0.2763672,0-0.5-0.2236328-0.5-0.5v-12.5195313V84.6868744 c0-0.2763672,0.2236328-0.5,0.5-0.5h118.2893066l0.1740723,1H262.9959106v94.6831055v12.0195313h136.5373535 L399.7073364,192.8895111z" fill="#2E1042"/></g><g id="change1_2"><path d="M279.9397583,161.208847h37.583252V93.6436615h-37.583252V161.208847z M298.7312622,99.2462006 c1.6923828,0,3.064209,1.3718262,3.064209,3.064209c0,1.6921387-1.3718262,3.0640869-3.064209,3.0640869 c-1.6921387,0-3.0639648-1.3719482-3.0639648-3.0640869C295.6672974,100.6180267,297.0391235,99.2462006,298.7312622,99.2462006z M331.4238892,93.6436615v33.7825928h37.583252V93.6436615H331.4238892z M350.7295532,105.6412201 c-1.6923828,0-3.064209-1.3719482-3.064209-3.064209s1.3718262-3.064209,3.064209-3.064209 c1.6921387,0,3.064209,1.3719482,3.064209,3.064209S352.4216919,105.6412201,350.7295532,105.6412201z" fill="#FFCD34"/></g><g id="change3_2"><path d="M380.9592896,85.1868744H262.9959106v94.6831055h134.4453125L380.9592896,85.1868744z M317.5230103,161.208847h-37.583252V93.6436615h37.583252V161.208847z M369.0071411,127.4262543h-37.583252V93.6436615h37.583252 V127.4262543z M380.7852173,84.1868744H262.4959106c-0.2763672,0-0.5,0.2236328-0.5,0.5v95.1831055h-12.0194092V72.1673431 h128.7164307L380.7852173,84.1868744z M295.6672974,102.3104095c0-1.6923828,1.3718262-3.064209,3.0639648-3.064209 c1.6923828,0,3.064209,1.3718262,3.064209,3.064209c0,1.6921387-1.3718262,3.0640869-3.064209,3.0640869 C297.0391235,105.3744965,295.6672974,104.0025482,295.6672974,102.3104095z M347.6653442,102.5770111 c0-1.6922607,1.3718262-3.064209,3.064209-3.064209c1.6921387,0,3.064209,1.3719482,3.064209,3.064209 s-1.3720703,3.064209-3.064209,3.064209C349.0371704,105.6412201,347.6653442,104.2692719,347.6653442,102.5770111z" fill="#FF4A97"/></g><g><g id="change2_1"><circle cx="191.038" cy="100.417" fill="#2E1042" r="25.601"/></g><g id="change4_1"><path d="M82.5461655 150.9051056L79.9390869 231.941803 177.2295685 234.1506958 177.2295685 160.6572876z" fill="#FFAC67"/></g><g id="change2_2"><path d="M114.4850998,177.6659851c0,0,14.0992355,36.1295319,62.7444534,40.4378815v-36.0529785 L114.4850998,177.6659851z" fill="#2E1042"/></g><g id="change5_1"><path d="M203.2075348,55.9768219c6.6219635,10.6092453,8.7472382,44.5514374,5.2827148,47.8011932 c-9.199234,8.6289825-21.1060028-32.0344467-21.0216217-46.5675697 C187.4933014,52.9631615,190.3214569,35.3316002,203.2075348,55.9768219z" fill="#C14F44"/></g><g id="change4_2"><path d="M197.2576141,46.1874619c0,0,13.4823608,67.8574524,17.5977783,92.1167679 c4.1278839,24.3327332-6.0164337,52.0234222-42.939682,56.0305939 c-28.0260925,3.0415955-63.5160141-15.1863556-89.369545-43.429718L68.732605,55.7888794L197.2576141,46.1874619z" fill="#FFAC67"/></g><g id="change3_1"><path d="M68.7326126,55.7889252c0,0,49.5251465,126.2454834,68.8633957,133.381958 c-5.9846191-24.7009277-9.0739746-57.1065674-11.568718-79.2271729 c-1.3116455-11.6298828-2.623291-23.2597656-3.9349365-34.8896484 c12.1462326,8.2685547,27.5294113,10.2211914,42.2194748,9.9025879c3.9440918-0.0855713,7.9907227-0.342041,11.5861816-1.965332 c3.595459-1.6235352,6.689209-4.8962402,7.0341797-8.8260498c0.3322754-3.7843018-1.8813477-7.3515625-4.5493164-10.0559082 s-5.8651123-4.8739014-8.3271484-7.7670898c8.2070313,5.3289795,17.5751953,8.8591309,27.2579346,10.2713623 c1.3358154,0.1948242,2.6934814,0.3400879,4.0532227,0.416748c-2.3935547-12.2076416-4.1092529-20.8430176-4.1092529-20.8430176 L68.7326126,55.7889252z" fill="#FF4A97" opacity=".3"/></g><path d="M179.056015,91.8095474c2.1276398,10.7642136,4.0344849,18.8548431,16.8261414,28.1086807l-8.4477386,7.5080414" fill="none" stroke="#2E1042" stroke-linecap="round" stroke-linejoin="round" stroke-miterlimit="10"/><g id="change5_2"><path d="M157.0847015,128.9973145c-11.2558441,3.703598-29.2771988,18.453476-29.2771988,18.453476 s-10.5214462-35.6433411-13.8028717-51.0393372c-1.6017838-7.5153503-15.8664246-17.3221664-11.6379318,28.4481506 c3.1147461,33.7149353,2.1316376,64.8959351,49.4962311,72.2077484 c67.5862274,10.4335022,80.4315948-61.4157562,57.9591522-68.1146545 c-2.1757202-0.6485596-7.6286469,0.7368622-11.2203827,2.4891205c-1.3040924,0.6362152-1.2133789,2.5419159,0.1493225,3.0403442 c3.0162811,1.103241,7.2805328,3.2477722,8.5988159,6.8451691c4.2569733,11.6165161-5.3100739,33.248703-29.0740051,31.3830566 c-17.0602417-1.3393555-28.6441345-23.5748749-15.9427185-33.4118805 c4.8394623-3.7480774,14.0321503-5.084198,18.6255951-5.531723c1.421936-0.1385345,2.0391388-1.9215698,0.9641418-2.8625641 C178.1923981,127.6388168,169.086319,125.0483398,157.0847015,128.9973145z" fill="#C14F44"/></g><g id="change5_3"><path d="M102.3666992,124.8596039h17.7012329L107.999176,68.2346725 c0,0,59.3372345,12.3810501,69.2303925,5.2577057c10.4629517-7.5336227-7.9427185-17.5155563-7.9427185-17.5155563 s26.5953064,10.2226028,37.266449,4.5408897c12.0751495-6.4292564-8.0300598-14.3302498-8.0300598-14.3302498 s18.536911,0,15.1149139-7.2941895c-4.1418457-8.8285828-44.6622467-26.5307274-86.497757-26.5307274 S61.0221558,41.9348297,59.9438477,66.623436c-0.5670776,12.9835968,6.5501709,55.3140717,6.5501709,55.3140717 L102.3666992,124.8596039z" fill="#C14F44"/></g><g id="change2_3"><path d="M113.9896927,126.8985443c0.4039307-9.5057373-4.5454102-18.2792969-8.3594971-26.9958496 c-2.1116943-4.8261719-3.9099121-9.7895508-5.3795166-14.8483887c-2.7734375-9.5471191-4.3653564-19.7341309-2.1290283-29.4212646 c3.5595703-15.4189453,16.7497559-27.5042744,31.7929611-32.4151611 c10.0897217-3.2937012,21.1970215-3.8688965,31.0810547-7.314208c-10.6809082-2.1682129-22.2158203-3.5411377-33.855217-3.5411377 c-41.8355713,0-66.1182861,29.5722656-67.1965332,54.2608643c-0.5671387,12.9836426,6.5500488,55.3140869,6.5500488,55.3140869 l35.8728027,2.9221191c0.7294922,7.8959961,1.2342529,15.6529541,2.1878662,22.9969482 c0.710083-0.8223877,1.4056396-1.6574707,2.0656738-2.5235596 C110.6946487,139.9869232,113.7044144,133.6141205,113.9896927,126.8985443z" fill="#2E1042" opacity=".3"/></g><g id="change4_3"><path d="M106.2271271,117.4476089c0,0-8.2476501-20.6219559-30.790535-15.4970169 c-7.2890244,1.6570969-17.1058273,11.6923294-15.267849,25.7080688c1.0488586,7.99823,7.1694679,18.6378479,22.3774223,23.2464447 L106.2271271,117.4476089z" fill="#FFAC67"/></g><g><g id="change2_7"><path d="M70.0264359,102.6217651c0,0-5.7241135-44.5633011,7.6492844-66.2725449 c28.2753067-45.8997307,88.087616-19.4159031,88.087616-19.4159031s-67.6174393-3.8564806-74.494072,43.2027893 c-2.1747589,14.8827019,0.6080704,40.9961357,0.6080704,40.9961357L70.0264359,102.6217651z" fill="#2E1042"/></g><g id="change2_8"><circle cx="82.398" cy="118.666" fill="#2E1042" r="25.601"/></g><circle cx="77.676" cy="118.666" fill="none" r="14.892" stroke="#FF4A97" stroke-linecap="round" stroke-linejoin="round" stroke-miterlimit="10"/><path d="M90.5946198,140.8939056c7.0478439-4.1842194,11.7720795-11.8688202,11.7720795-20.6604156 c0-12.2349014-9.1497726-22.3260651-20.9787216-23.8220367" fill="none" stroke="#FF4A97" stroke-linecap="round" stroke-linejoin="round" stroke-miterlimit="10"/></g><g id="change2_4"><ellipse cx="191.038" cy="106.432" fill="#2E1042" rx="2.909" ry="4.393" transform="rotate(-4.086 191.038 106.432)"/></g><g id="change2_5"><ellipse cx="161.167" cy="107.975" fill="#2E1042" rx="2.909" ry="4.393" transform="rotate(-4.086 161.167 107.975)"/></g><g id="change2_6"><circle cx="205.239" cy="161.267" fill="#2E1042" r="6.716"/></g><path d="M211.3485107,114.0699997c0,0,11.0167847,26.0796432,15.7232819,38.1720505 c1.8244934,4.6876831-1.7144623,9.7150269-6.7413025,9.5304718c-3.4443054-0.1264343-13.7771912-0.5057831-13.7771912-0.5057831" fill="none" stroke="#2E1042" stroke-linecap="round" stroke-linejoin="round" stroke-miterlimit="10"/><g id="change5_4"><path d="M165.7633362,16.9333172c17.9398041,0,50.1448975,4.8300076,48.2963562,24.2496014" fill="#C14F44"/></g><path d="M184.7207642,83.4989777c0,0,4.7489014-6.444931,10.8546143,0" fill="none" stroke="#2E1042" stroke-linecap="round" stroke-linejoin="round" stroke-miterlimit="10"/><path d="M150.4608765,87.3998566c0,0,5.4273071-7.8017578,13.9074707-1.0176163" fill="none" stroke="#2E1042" stroke-linecap="round" stroke-linejoin="round" stroke-miterlimit="10"/><path d="M188.4520416,154.5509796c-19.3296967,2.3941345-22.6887054-11.6059875-22.6887054-11.6059875l25.274231,4.9115601" fill="none" stroke="#2E1042" stroke-linecap="round" stroke-linejoin="round" stroke-miterlimit="10"/></g><g id="change3_3"><path d="M469.1360779,380.964447l28.0085754-160.9015045 c1.4804077-8.5045319-4.2137756-15.3988342-12.7183228-15.3988342l-334.3869629-0.0002136 c-8.5045319,0-16.598938,6.8942871-18.0793457,15.398819L96.9257431,421.3248901 c-1.4804077,8.5045471,4.213768,15.3988342,12.7183075,15.3988342l314.9849854,0.0002136h34.8008118l32.5125732,0.0000305 c6.6528015,0,11.3395996-8.0911255,7.3692322-12.7219849l-27.4200745-31.98172 C469.4049072,389.1199341,468.4107666,385.131134,469.1360779,380.964447z" fill="#FF4A97"/></g><g id="change1_3"><path d="M217.0558319 356.5243835L122.9330215 356.5243835 133.0936432 260.6842346 206.8952026 260.6842346z" fill="#FFCD34"/></g><g id="change2_15"><path d="M166.203 356.524H174.31900000000002V436.673H166.203z" fill="#2E1042"/></g><path d="M147.207 356.524L170.261 385.392" fill="none" stroke="#2E1042" stroke-linecap="round" stroke-linejoin="round" stroke-miterlimit="10"/><path d="M193.316 356.524L170.261 385.392" fill="none" stroke="#2E1042" stroke-linecap="round" stroke-linejoin="round" stroke-miterlimit="10"/><path d="M134.586 356.524L134.586 408.9" fill="none" stroke="#2E1042" stroke-linecap="round" stroke-linejoin="round" stroke-miterlimit="10"/><g id="change2_16"><path d="M136.4522247 408.9002075L132.7189026 408.9002075 131.7855682 419.2169495 137.3855591 419.2169495z" fill="#2E1042"/></g><path d="M123.726 349.043L218.023 349.043" fill="none" stroke="#2E1042" stroke-linecap="round" stroke-linejoin="round" stroke-miterlimit="10"/><g><g id="change4_7"><path d="M333.1493225,249.6799927c0,0-28.3543091,58.4325867-37.8511353,79.4897461 c-9.5255737,21.1208801-10.5022888,50.706665,22.0828857,63.1114502 c24.7333374,9.4157104,64.9121094-0.7422485,95.0988464-20.2575989l38.6718445-91.5021362L333.1493225,249.6799927z" fill="#FFAC67"/></g><g id="change4_8"><path d="M412.4799194 358.5240173L414.9273987 436.7240295 323.5926514 436.673645 323.5926514 367.6792297z" fill="#FFAC67"/></g><g id="change4_9"><path d="M443.8748169,418.635376c0,0,23.4135742,10.5154114,30.7830505,18.0886536h-56.5058899 L443.8748169,418.635376z" fill="#FFAC67"/></g><path d="M341.3272705,303.8869934c0,0-10.9171448,16.8069458-26.4358521,20.7032776l5.0655823,9.3307495" fill="none" stroke="#2E1042" stroke-linecap="round" stroke-linejoin="round" stroke-miterlimit="10"/><g id="change2_10"><path d="M303.5814209,311.3319092c0,0-28.2548523-61.9026337,20.0112305-76.5466614 c32.9332886-9.9920197,98.6004333-28.9205017,135.8856812,22.0484619 c17.8461609,24.3956909-1.3568115,53.2554626,4.8489685,143.5064697l-65.4137268-64.3267822 c0,0-51.1058044-38.474884-35.3163452-74.4307861c0,0-24.1981201,32.2664795-48.7058105,27.8997498L303.5814209,311.3319092z" fill="#2E1042"/></g><g id="change2_11"><path d="M463.9309387,333.9210205c-3.434967,58.2562256,23.1927795,81.882843-34.811615,102.803009h-72.2510681 c0,0,4.0704956-25.7095032,55.6116638-64.7004395C422.9143372,364.1299438,463.9309387,333.9210205,463.9309387,333.9210205z" fill="#2E1042"/></g><g id="change4_10"><path d="M398.9135742,336.0133972c0,0,12.3865356-16.7724915,31.6450806-6.7662048 c6.2270508,3.2354126,12.7611389,14.6805725,7.7645569,26.9743958 c-2.8513489,7.0155945-10.9362488,15.2263184-25.8432922,15.802002L398.9135742,336.0133972z" fill="#FFAC67"/></g><path d="M424.3285828 337.1749268L411.9753723 349.7568665 422.8284302 352.5934448" fill="none" stroke="#2E1042" stroke-linecap="round" stroke-linejoin="round" stroke-miterlimit="10"/><g id="change2_12"><ellipse cx="325.5" cy="305.171" fill="#2E1042" rx="4.393" ry="2.909" transform="rotate(-65.433 325.5 305.17)"/></g><g id="change2_13"><ellipse cx="356.868" cy="314.728" fill="#2E1042" rx="4.393" ry="2.909" transform="rotate(-65.433 356.868 314.728)"/></g><path d="M325.5004578,355.373291c0,0,16.8666992,5.1481018,22.9724426-6.3301392h-21.4116516" fill="none" stroke="#2E1042" stroke-linecap="round" stroke-linejoin="round" stroke-miterlimit="10"/><path d="M325.5004578,285.6662903c0,0,6.3601379-3.561676,11.4862061,3.8160706" fill="none" stroke="#2E1042" stroke-linecap="round" stroke-linejoin="round" stroke-miterlimit="10"/><path d="M356.8682556,294.5704651c0,0,8.3443298-3.8160706,13.4579468,6.1057129" fill="none" stroke="#2E1042" stroke-linecap="round" stroke-linejoin="round" stroke-miterlimit="10"/></g><g><path d="M211.9780426,436.2677917c-4.2664642-6.8417664-6.7315216-14.9229431-6.7315216-23.579834 c0-24.6454468,19.9790955-44.6245422,44.6245422-44.6245422c24.6454773,0,44.6245422,19.9790955,44.6245422,44.6245422 c0,8.8292542-2.5641785,17.0595703-6.9884644,23.986969 M270.2310486,436.6755066 c6.7926331-5.7710876,11.1025391-14.3760071,11.1025391-23.9875488c0-17.3762817-14.0862427-31.4625244-31.4625244-31.4625244 s-31.4625244,14.0862427-31.4625244,31.4625244c0,8.1620178,3.1079712,15.5981445,8.2050018,21.1894226 M249.8710632,392.373291 c-11.2194824,0-20.3146667,9.0951843-20.3146667,20.3146667s9.0951843,20.3146667,20.3146667,20.3146667 s20.3146667-9.0951843,20.3146667-20.3146667S261.0905457,392.373291,249.8710632,392.373291z" fill="none" stroke="#FFAC67" stroke-linecap="round" stroke-linejoin="round" stroke-miterlimit="10"/><g id="change2_9"><path d="M251.5813141,436.673645h-54.8535919v-27.4268188 c0-15.1473694,12.2793884-27.4267578,27.4267731-27.4267578h0.000061c15.1473846,0,27.4267578,12.2793884,27.4267578,27.4267578 V436.673645z" fill="#2E1042"/></g><path d="M251.581 411.015L218.023 411.015" fill="none" stroke="#FFAC67" stroke-linecap="round" stroke-linejoin="round" stroke-miterlimit="10"/><path d="M251.581 417.987L218.023 417.987" fill="none" stroke="#FFAC67" stroke-linecap="round" stroke-linejoin="round" stroke-miterlimit="10"/><path d="M251.581 424.96L218.023 424.96" fill="none" stroke="#FFAC67" stroke-linecap="round" stroke-linejoin="round" stroke-miterlimit="10"/><g id="change4_4"><circle cx="218.023" cy="411.015" fill="#FFAC67" r="2.114"/></g><g id="change4_5"><circle cx="218.023" cy="417.987" fill="#FFAC67" r="2.114"/></g><g id="change4_6"><circle cx="218.023" cy="424.96" fill="#FFAC67" r="2.114"/></g></g><g id="change3_4"><path d="M348.462616,33.0014h-0.0000305c-5.6992493,0-10.5569458-4.6201611-10.8499756-10.319418v-0.000021 c-0.2929993-5.699255,4.0896301-10.3194151,9.7888794-10.3194151l0,0c5.6992798,0,10.5569763,4.6201601,10.8499756,10.3194151 v0.000021C358.5444946,28.3812389,354.1618652,33.0014,348.462616,33.0014z" fill="#FF4A97"/></g><g id="change1_4"><path d="M157.0093842,237.2576904h0.0000153c5.6992645,0,10.5569611-4.620163,10.8499756-10.3194122v-0.0000153 c0.2930145-5.6992645-4.0896149-10.3194275-9.7888641-10.3194275h-0.0000153 c-5.6992645,0-10.5569611,4.620163-10.8499756,10.3194275v0.0000153 C146.9275055,232.6375275,151.3101349,237.2576904,157.0093842,237.2576904z" fill="#FFCD34"/></g><g id="change1_5"><path d="M172.5162964,197.679184c15.3713379-1.6966553,26.7229004-8.4208984,34.463501-17.0625 c-6.4892578,1.1629639-13.3144531,0.8643799-19.3898926,3.4008789 C181.2368774,186.6699066,176.6063843,192.0259857,172.5162964,197.679184z" fill="#FFCD34" opacity=".2"/></g><g id="change1_6"><path d="M107.2495804,157.962265c-0.3735352-0.2857666-0.7558594-0.5644531-1.1479492-0.8284912 c2.2636719,10.6920166,6.2905273,20.1190186,14.5426025,27.2796631c-0.0518799-2.6652832-0.4044189-5.3242188-1.0765381-7.9044189 C117.662056,169.1939545,113.2531204,162.5556488,107.2495804,157.962265z" fill="#FFCD34" opacity=".2"/></g><g id="change1_7"><path d="M206.4092407,26.3255444c-7.0305176-4.9285889-17.7905273-7.5040283-27.7352295-8.640625 c5.3093262,4.1827393,11.6561279,7.0556641,18.3226318,8.1865234 C200.102356,26.3982983,203.267395,26.5389233,206.4092407,26.3255444z" fill="#FFCD34" opacity=".2"/></g><g id="change1_8"><path d="M167.3689575,70.8160248c-1.0174561,1.4880371-1.6213379,3.1400146-1.9558105,4.8771973 c5.4525146-0.0681152,9.7331543-0.7009277,11.8164063-2.2009277c3.9425049-2.838623,3.7844238-6.0246582,2.0583496-8.8935547 C174.6902466,65.231308,169.9765015,67.0030365,167.3689575,70.8160248z" fill="#FFCD34" opacity=".2"/></g><g id="change1_9"><path d="M203.4717407,48.5772552c-0.4196777,0.8933105-0.5341797,1.9487305-0.3786621,2.9348145 c0.2303467,1.4595947,0.9578857,2.7907715,1.7507324,4.0377197c0.9230957,1.4515381,1.9753418,2.8341064,3.1898193,4.0466309 C213.6279907,55.5933685,208.1389771,51.2073822,203.4717407,48.5772552z" fill="#FFCD34" opacity=".2"/></g><g id="change5_5"><path d="M63.5320511,51.0434418c-2.1430664,5.2001953-3.3659668,10.493042-3.5881348,15.5799561 c-0.1071777,2.4528809,0.0603027,5.9543457,0.4018555,10.0189209c1.803833-4.7305908,3.1936035-9.5891113,3.7076416-14.6151123 C64.4252396,58.391098,64.2727737,54.6386566,63.5320511,51.0434418z" fill="#C14F44"/></g><path d="M370.4942322,250.0790405c-8.0852661,8.6021729-12.943512,20.1690979-13.4255676,31.9647217 c-0.4820862,11.7955933,3.4161072,23.7203674,10.7724609,32.9536133c2.5667114,3.2215881,5.5708313,6.1480408,9.130188,8.2210693 c7.1886597,4.1867981,16.1568909,4.6509094,23.1012573,9.2315369" fill="none" stroke="#2E1042" stroke-linecap="round" stroke-linejoin="round" stroke-miterlimit="10"/><path d="M301.0951538,317.3290405c-6.3398132-11.9526672-10.4101563-25.5123901-9.0010376-38.96875 c1.4091187-13.4563904,8.9846191-26.6910858,21.1500549-32.6123505" fill="none" stroke="#2E1042" stroke-linecap="round" stroke-linejoin="round" stroke-miterlimit="10"/><path d="M429.2017822,233.9250488c11.0875244,7.1418304,22.3863831,14.6180878,30.0510864,25.3508301 c6.7930908,9.5122681,10.3026733,21.0964966,11.3984375,32.7339172c1.0957947,11.6373901-0.1183777,23.380249-2.1004028,34.8998413 c-1.408844,8.1881714-3.2108154,16.3571167-3.428772,24.6627197c-0.25177,9.5931702,1.6156311,19.1002502,2.47229,28.6583862 c1.0921326,12.1856079,0.4586487,24.8482361-4.5362549,36.0166016 c-4.9949036,11.168396-14.9573059,20.6239319-27.0376587,22.5594788" fill="none" stroke="#2E1042" stroke-linecap="round" stroke-linejoin="round" stroke-miterlimit="10"/><path d="M413.9896545,372.2381287c-14.0672302,3.4169006-25.4223328,13.5740051-35.5257568,23.9413757 c-4.3348999,4.4481506-8.5842285,9.0318604-11.9750671,14.2356567c-5.0828247,7.8003845-8.1237488,16.9188232-8.740387,26.2086487" fill="none" stroke="#2E1042" stroke-linecap="round" stroke-linejoin="round" stroke-miterlimit="10"/><path d="M312.4776306,284.8150635c-3.6956787-5.4364929-4.8943481-12.5011902-3.1986694-18.8524475 s6.2561646-11.8783417,12.1697998-14.7492981" fill="none" stroke="#FF4A97" stroke-linecap="round" stroke-linejoin="round" stroke-miterlimit="10"/><path d="M367.5933838,255.5761566c3.9056091-9.1177521,11.9489746-16.1068268,21.1028748-19.9269867 c9.1538696-3.8201447,19.34198-4.6746521,29.2203674-3.7776794" fill="none" stroke="#FF4A97" stroke-linecap="round" stroke-linejoin="round" stroke-miterlimit="10"/><path d="M415.5707703,324.0862122c-2.5948486-4.1541748-5.1646118-8.3240356-7.7090149-12.5093079 c-3.8651123-6.3576355-7.7896118-13.1507874-7.8485413-20.5908813" fill="none" stroke="#FF4A97" stroke-linecap="round" stroke-linejoin="round" stroke-miterlimit="10"/><path d="M388.0253906,433.0170898c8.924469-15.7619324,29.3824768-21.759552,39.3679199-36.8716431 c4.1030579-6.2096252,6.1654968-13.7441406,5.7970581-21.1777649" fill="none" stroke="#FF4A97" stroke-linecap="round" stroke-linejoin="round" stroke-miterlimit="10"/><path d="M416.5703735,235.8309326c3.7694092,1.7028198,7.4987183,3.5670624,10.790741,6.0711823 c3.2919922,2.5041199,6.1487427,5.6953278,7.7481995,9.5097504" fill="none" stroke="#FF4A97" stroke-linecap="round" stroke-linejoin="round" stroke-miterlimit="10"/><path d="M400.0473328,240.0539551c2.8164368,3.1196747,4.8346252,6.9541779,5.811676,11.0419769" fill="none" stroke="#FF4A97" stroke-linecap="round" stroke-linejoin="round" stroke-miterlimit="10"/><path d="M386.0309143,230.4128265c-1.6679688-1.2461548-3.5072937-2.2626801-5.4498901-3.0119476" fill="none" stroke="#FF4A97" stroke-linecap="round" stroke-linejoin="round" stroke-miterlimit="10"/><g id="change3_5"><path d="M304.4336548,253.9562836c-0.7028809-1.4190674-1.6130371-2.7000732-2.6450195-3.8911133 c-8.7119141,13.2692719-7.0202637,31.0687103-3.8925781,44.0634613c4.1066895-9.1563721,7.8186035-18.5854492,8.385498-28.5513916 C306.5066528,261.6165466,306.1946411,257.5110779,304.4336548,253.9562836z" fill="#FF4A97" opacity=".2"/></g><g id="change3_6"><path d="M360.2861938,230.8758392c1.8771973-1.8525391,3.4460449-3.9628906,4.9313965-6.1450195 c-16.0046387,2.3955078-30.6376953,6.7208252-41.625,10.0544434c-0.7312012,0.2219238-1.4433594,0.4555664-2.1398926,0.6987305 c5.0761719,2.1650391,10.4628906,3.5496826,15.9645996,3.7192383 C345.7522583,239.4603119,354.3504028,236.733017,360.2861938,230.8758392z" fill="#FF4A97" opacity=".2"/></g><g id="change3_7"><path d="M459.5296021,298.3893738c1.6745605,3.6297607,3.8813477,6.9489746,6.348877,10.0933838 c1.8845215-21.869873,2.9084473-35.6665039-3.8742676-47.7160645 C455.1707153,271.8926697,454.0405884,286.4903259,459.5296021,298.3893738z" fill="#FF4A97" opacity=".2"/></g><g id="change3_8"><path d="M368.8674927,286.0479431c-2.3706055-2.0738525-5.0837402-4.0437012-7.9912109-5.1804199 c1.9941406,16.2841797,13.5917969,31.557373,23.467041,41.8825684c-0.1101074-7.5625-0.7253418-15.1604004-3.848877-21.9829102 C377.8721313,295.0391541,373.6091919,290.1957703,368.8674927,286.0479431z" fill="#FF4A97" opacity=".2"/></g><g id="change3_9"><path d="M459.2190552,398.7510681c-3.7314453,5.3240967-7.0888672,11.0054932-8.9418945,17.2373047 c-1.1181641,3.7609863-1.6499023,7.7504883-1.3789063,11.6541748 c16.2539063-9.9486084,18.8903809-21.3319092,18.0795898-36.9715576 C463.8777466,392.5938416,461.3577271,395.6996765,459.2190552,398.7510681z" fill="#FF4A97" opacity=".2"/></g><g id="change3_10"><path d="M381.6260376,413.410614c3.6296387-4.6116943,7.109375-9.4901123,8.8994141-15.0792236 c0.9245605-2.887207,1.3361816-6.0073242,1.0778809-9.0251465c-21.4221191,19.5966797-29.7397461,34.2855225-32.8903809,41.8015137 C368.0281372,428.8317566,375.5518188,421.1285095,381.6260376,413.410614z" fill="#FF4A97" opacity=".2"/></g><g id="change2_17"><path d="M323.5926514,394.1669312c0,0,22.7101746,7.4750366,52.6099243-4.8606873 c0,0-17.8082275,26.914093-52.6099243,26.5665588V394.1669312z" fill="#2E1042"/></g></g></svg>